{"title":"Gozaresh AKA The Report (1977), Abbas Kiarostami","uid":9540417,"size":1563662831,"categoryP":"video","categoryS":"movies","magnet":"?xt=urn:btih:75a5596b0eedff8b400ffdc397d42e5613cc0ad8&amp;dn=Gozaresh+AKA+The+Report+%281977%29%2C+Abbas+Kiarostami&amp;tr=udp%3A%2F%2Ftracker.openbittorrent.com%3A80&amp;tr=udp%3A%2F%2Fopen.demonii.com%3A1337&amp;tr=udp%3A%2F%2Ftracker.coppersurfer.tk%3A6969&amp;tr=udp%3A%2F%2Fexodus.desync.com%3A6969","seeders":4,"leechers":1,"uploader":"wesleybl","files":2,"time":1391032393,"description":"Video\nID                                       : 0\nFormat                                   : MPEG-4 Visual\nFormat profile                           : Advanced Simple@L5\nFormat settings, BVOP                    : 2\nFormat settings, QPel                    : No\nFormat settings, GMC                     : No warppoints\nFormat settings, Matrix                  : Default (MPEG)\nCodec ID                                 : XVID\nCodec ID/Hint                            : XviD\nDuration                                 : 1h 49mn\nBit rate                                 : 1 767 Kbps\nWidth                                    : 608 pixels\nHeight                                   : 416 pixels\nDisplay aspect ratio                     : 3:2\nFrame rate                               : 23.976 fps\nColor space                              : YUV\nChroma subsampling                       : 4:2:0\nBit depth                                : 8 bits\nScan type                                : Progressive\nCompression mode                         : Lossy\nBits/(Pixel*Frame)                       : 0.291\nStream size                              : 1.35 GiB (93%)\nWriting library                          : XviD 1.2.1 (UTC 2008-12-04)\n\nAudio\nID                                       : 1\nFormat                                   : MPEG Audio\nFormat version                           : Version 1\nFormat profile                           : Layer 3\nMode                                     : Joint stereo\nMode extension                           : MS Stereo\nCodec ID                                 : 55\nCodec ID/Hint                            : MP3\nDuration                                 : 1h 49mn\nBit rate mode                            : Constant\nBit rate                                 : 128 Kbps\nChannel(s)                               : 2 channels\nSampling rate                            : 48.0 KHz\nCompression mode                         : Lossy\nStream size                              : 100 MiB (7%)\nAlignment                                : Split accross interleaves\nInterleave, duration                     : 42 ms (1.00 video frame)\nInterleave, preload duration             : 500 ms\nWriting library                          : LAME3.90.3","torrent":{"xt":"urn:btih:75a5596b0eedff8b400ffdc397d42e5613cc0ad8","amp;dn":"Gozaresh+AKA+The+Report+%281977%29%2C+Abbas+Kiarostami","amp;tr":["udp%3A%2F%2Ftracker.openbittorrent.com%3A80","udp%3A%2F%2Fopen.demonii.com%3A1337","udp%3A%2F%2Ftracker.coppersurfer.tk%3A6969","udp%3A%2F%2Fexodus.desync.com%3A6969"],"infoHash":"75a5596b0eedff8b400ffdc397d42e5613cc0ad8","infoHashBuffer":{"type":"Buffer","data":[117,165,89,107,14,237,255,139,64,15,253,195,151,212,46,86,19,204,10,216]},"announce":[],"urlList":[]}}